<?xml version="1.0" encoding="UTF-8"?>
<svg width="12px" height="12px" viewBox="0 0 12 12" version="1.1" xmlns="http://www.w3.org/2000/svg" xmlns:xlink="http://www.w3.org/1999/xlink">
    <title>ic_righttick</title>
    <g id="Page-1" stroke="none" strokeWidth="1" fill="none" fillRule="evenodd">
        <g id="05b_UM_Homepage-V-5.0" transform="translate(-29.000000, -658.000000)">
            <g id="LT-Banner_personal-loan_svg" transform="translate(12.000000, 466.000000)">
                <g id="Group-29" transform="translate(17.000000, 190.000000)">
                    <g id="ic_righttick" transform="translate(0.000000, 2.000000)">
                        <path d="M12,6 C12,9.3164978 9.31604004,12 6,12 C2.6835022,12 0,9.31604004 0,6 C0,2.6835022 2.68395996,0 6,0 C9.3164978,0 12,2.68395996 12,6 Z M11.0625,6 C11.0625,3.20169068 8.79794311,0.9375 6,0.9375 C3.20169068,0.9375 0.9375,3.20205689 0.9375,6 C0.9375,8.79830932 3.20205689,11.0625 6,11.0625 C8.79830932,11.0625 11.0625,8.79794311 11.0625,6 Z" id="Shape" fill="#474EBB"></path>
                        <path d="M8.6522827,4.09616088 C8.83538817,4.27926635 8.83538817,4.57608033 8.6522827,4.75909425 L5.50762941,7.90383912 C5.32452394,8.08685302 5.02780151,8.08685302 4.84469604,7.90383912 L3.3477173,6.4067688 C3.16461183,6.22375488 3.16461183,5.92694091 3.3477173,5.74392701 C3.5307312,5.56082154 3.82754517,5.56082154 4.01055909,5.74392701 L5.17611694,6.90948487 L7.98934936,4.09616088 C8.17245483,3.91314698 8.4692688,3.91314698 8.6522827,4.09616088 L8.6522827,4.09616088 Z" id="Path" fill="#6C75FF"></path>
                    </g>
                </g>
            </g>
        </g>
    </g>
</svg>